<svg width="40" height="40" viewBox="0 0 40 40" fill="none" xmlns="http://www.w3.org/2000/svg">
<rect x="0.5" y="-0.5" width="39" height="39" rx="19.5" transform="matrix(1 0 0 -1 0 39)" fill="#0056CD"/>
<rect x="0.5" y="-0.5" width="39" height="39" rx="19.5" transform="matrix(1 0 0 -1 0 39)" stroke="#0056CD"/>
<path d="M16.3138 13.3087C16.2363 13.3861 16.1749 13.4779 16.133 13.5791C16.0911 13.6802 16.0695 13.7886 16.0695 13.8981C16.0695 14.0076 16.0911 14.116 16.133 14.2171C16.1749 14.3183 16.2363 14.4102 16.3138 14.4876L22.6693 20.8431L16.3138 27.1987C16.1666 27.3566 16.0864 27.5656 16.0902 27.7815C16.094 27.9974 16.1815 28.2033 16.3342 28.356C16.4869 28.5087 16.6928 28.5962 16.9087 28.6C17.1246 28.6038 17.3336 28.5236 17.4915 28.3764L24.436 21.432C24.592 21.2757 24.6797 21.0639 24.6797 20.8431C24.6797 20.6223 24.592 20.4105 24.436 20.2542L17.4915 13.3098C17.3353 13.1537 17.1235 13.0661 16.9026 13.0661C16.6818 13.0661 16.47 13.1526 16.3138 13.3087Z" fill="white"/>
</svg>
