<svg width="40" height="40" viewBox="0 0 40 40" fill="none" xmlns="http://www.w3.org/2000/svg">
<rect x="39.5" y="39.5" width="39" height="39" rx="19.5" transform="rotate(180 39.5 39.5)" fill="white"/>
<rect x="39.5" y="39.5" width="39" height="39" rx="19.5" transform="rotate(180 39.5 39.5)" stroke="#0056CD"/>
<path d="M23.6862 13.3087C23.7637 13.3861 23.8251 13.4779 23.867 13.5791C23.9089 13.6802 23.9305 13.7886 23.9305 13.8981C23.9305 14.0076 23.9089 14.116 23.867 14.2171C23.8251 14.3183 23.7637 14.4102 23.6862 14.4876L17.3307 20.8431L23.6862 27.1987C23.8334 27.3566 23.9136 27.5656 23.9098 27.7815C23.906 27.9974 23.8185 28.2033 23.6658 28.356C23.5131 28.5087 23.3072 28.5962 23.0913 28.6C22.8754 28.6038 22.6664 28.5236 22.5085 28.3764L15.564 21.432C15.408 21.2757 15.3203 21.0639 15.3203 20.8431C15.3203 20.6223 15.408 20.4105 15.564 20.2542L22.5085 13.3098C22.6647 13.1537 22.8765 13.0661 23.0974 13.0661C23.3182 13.0661 23.53 13.1526 23.6862 13.3087Z" fill="#0056CD"/>
</svg>
