<svg width="26" height="26" viewBox="0 0 26 26" fill="none" xmlns="http://www.w3.org/2000/svg">
<path d="M21.132 5.9006H18.2118L16.7705 3.73712C16.7148 3.65369 16.6394 3.5853 16.5509 3.53805C16.4624 3.49081 16.3637 3.46616 16.2634 3.46631H9.7719C9.6716 3.46616 9.57281 3.49081 9.48434 3.53805C9.39586 3.5853 9.32043 3.65369 9.26476 3.73712L7.82244 5.9006H4.90331C4.3115 5.9006 3.74392 6.1357 3.32545 6.55418C2.90697 6.97265 2.67188 7.54023 2.67188 8.13204V19.4921C2.67188 20.0839 2.90697 20.6515 3.32545 21.07C3.74392 21.4884 4.3115 21.7235 4.90331 21.7235H21.132C21.7238 21.7235 22.2913 21.4884 22.7098 21.07C23.1283 20.6515 23.3634 20.0839 23.3634 19.4921V8.13204C23.3634 7.54023 23.1283 6.97265 22.7098 6.55418C22.2913 6.1357 21.7238 5.9006 21.132 5.9006ZM22.1462 19.4921C22.1462 19.7611 22.0394 20.0191 21.8492 20.2093C21.6589 20.3995 21.401 20.5064 21.132 20.5064H4.90331C4.63431 20.5064 4.37632 20.3995 4.1861 20.2093C3.99589 20.0191 3.88902 19.7611 3.88902 19.4921V8.13204C3.88902 7.86304 3.99589 7.60505 4.1861 7.41483C4.37632 7.22462 4.63431 7.11775 4.90331 7.11775H8.14904C8.24934 7.1179 8.34813 7.09326 8.43661 7.04601C8.52509 6.99876 8.60052 6.93038 8.65619 6.84694L10.0975 4.68346H15.9368L17.3791 6.84694C17.4347 6.93038 17.5102 6.99876 17.5987 7.04601C17.6871 7.09326 17.7859 7.1179 17.8862 7.11775H21.132C21.401 7.11775 21.6589 7.22462 21.8492 7.41483C22.0394 7.60505 22.1462 7.86304 22.1462 8.13204V19.4921ZM13.0176 9.14633C12.1751 9.14633 11.3514 9.39618 10.6509 9.86427C9.95034 10.3324 9.40432 10.9977 9.08189 11.7761C8.75946 12.5545 8.6751 13.4111 8.83947 14.2374C9.00384 15.0638 9.40957 15.8229 10.0053 16.4186C10.6011 17.0144 11.3602 17.4201 12.1865 17.5845C13.0129 17.7489 13.8695 17.6645 14.6479 17.3421C15.4263 17.0197 16.0916 16.4736 16.5597 15.7731C17.0278 15.0725 17.2776 14.2489 17.2776 13.4064C17.2776 12.2765 16.8288 11.193 16.0299 10.3941C15.231 9.59515 14.1475 9.14633 13.0176 9.14633ZM13.0176 16.4492C12.4158 16.4492 11.8275 16.2708 11.3271 15.9364C10.8267 15.602 10.4367 15.1268 10.2064 14.5708C9.97608 14.0148 9.91582 13.403 10.0332 12.8127C10.1506 12.2225 10.4404 11.6803 10.866 11.2547C11.2916 10.8292 11.8337 10.5394 12.424 10.4219C13.0143 10.3045 13.6261 10.3648 14.1821 10.5951C14.7381 10.8254 15.2133 11.2154 15.5477 11.7158C15.882 12.2162 16.0605 12.8045 16.0605 13.4064C16.0605 14.2134 15.7399 14.9873 15.1693 15.558C14.5986 16.1286 13.8247 16.4492 13.0176 16.4492Z" fill="#323232"/>
</svg>
