<svg width="13" height="7" viewBox="0 0 13 7" fill="none" xmlns="http://www.w3.org/2000/svg">
<path d="M11.9246 0.579066C11.8666 0.520987 11.7977 0.474914 11.7218 0.44348C11.646 0.412045 11.5647 0.395866 11.4825 0.395866C11.4004 0.395866 11.3191 0.412045 11.2433 0.44348C11.1674 0.474914 11.0985 0.520987 11.0405 0.579066L6.2738 5.34573L1.50713 0.579066C1.38865 0.468666 1.23195 0.408563 1.07003 0.411419C0.908111 0.414277 0.753624 0.47987 0.639113 0.594381C0.524602 0.708892 0.459009 0.863379 0.456152 1.0253C0.453295 1.18721 0.513398 1.34392 0.623798 1.4624L5.83213 6.67073C5.94932 6.78777 6.10817 6.85352 6.2738 6.85352C6.43942 6.85352 6.59828 6.78777 6.71546 6.67073L11.9238 1.4624C12.0408 1.34521 12.1066 1.18636 12.1066 1.02073C12.1066 0.855107 12.0417 0.696254 11.9246 0.579066Z" fill="#323232"/>
</svg>
