<svg width="25" height="25" viewBox="0 0 25 25" fill="none" xmlns="http://www.w3.org/2000/svg">
<path fill-rule="evenodd" clip-rule="evenodd" d="M8.73418 6.51709V12.5171C8.73418 12.9505 8.81954 13.3796 8.98538 13.7799C9.15122 14.1803 9.39429 14.5441 9.70073 14.8505C10.0072 15.157 10.3709 15.4001 10.7713 15.5659C11.1717 15.7317 11.6008 15.8171 12.0342 15.8171C12.4675 15.8171 12.8967 15.7317 13.297 15.5659C13.6974 15.4001 14.0612 15.157 14.3676 14.8505C14.6741 14.5441 14.9171 14.1803 15.083 13.7799C15.2488 13.3796 15.3342 12.9505 15.3342 12.5171V6.51709C15.3342 5.64188 14.9865 4.80251 14.3676 4.18364C13.7488 3.56477 12.9094 3.21709 12.0342 3.21709C11.159 3.21709 10.3196 3.56477 9.70073 4.18364C9.08186 4.80251 8.73418 5.64188 8.73418 6.51709ZM12.6342 19.9931V23.0171H11.4342V19.9931C9.55496 19.8423 7.80146 18.9892 6.52281 17.6039C5.24417 16.2185 4.53417 14.4024 4.53418 12.5171V11.0171H5.73418V12.5171C5.73418 14.188 6.39793 15.7904 7.57941 16.9719C8.76089 18.1533 10.3633 18.8171 12.0342 18.8171C13.705 18.8171 15.3075 18.1533 16.489 16.9719C17.6704 15.7904 18.3342 14.188 18.3342 12.5171V11.0171H19.5342V12.5171C19.5342 14.4024 18.8242 16.2185 17.5455 17.6039C16.2669 18.9892 14.5134 19.8423 12.6342 19.9931ZM7.53418 6.51709C7.53418 5.32362 8.00829 4.17902 8.8522 3.33511C9.69611 2.4912 10.8407 2.01709 12.0342 2.01709C13.2277 2.01709 14.3722 2.4912 15.2162 3.33511C16.0601 4.17902 16.5342 5.32362 16.5342 6.51709V12.5171C16.5342 13.7106 16.0601 14.8552 15.2162 15.6991C14.3722 16.543 13.2277 17.0171 12.0342 17.0171C10.8407 17.0171 9.69611 16.543 8.8522 15.6991C8.00829 14.8552 7.53418 13.7106 7.53418 12.5171V6.51709Z" fill="#323232"/>
</svg>
