<svg width="30" height="31" viewBox="0 0 30 31" fill="none" xmlns="http://www.w3.org/2000/svg">
<g opacity="0.7">
<path d="M7.14369 10.2859H25.0008L22.7351 18.2144C22.5644 18.8113 22.204 19.3363 21.7083 19.71C21.2126 20.0837 20.6088 20.2859 19.988 20.2859H10.4166C9.71293 20.2863 9.0339 20.027 8.50958 19.5578C7.98526 19.0885 7.65252 18.4423 7.57512 17.743L6.42941 7.42871H3.57227" stroke="#323232" stroke-width="0.75" stroke-linecap="round" stroke-linejoin="round"/>
<path d="M10.0008 25.2859C10.7898 25.2859 11.4294 24.6463 11.4294 23.8573C11.4294 23.0683 10.7898 22.4287 10.0008 22.4287C9.21186 22.4287 8.57227 23.0683 8.57227 23.8573C8.57227 24.6463 9.21186 25.2859 10.0008 25.2859Z" fill="#323232"/>
<path d="M21.4286 25.2859C22.2175 25.2859 22.8571 24.6463 22.8571 23.8573C22.8571 23.0683 22.2175 22.4287 21.4286 22.4287C20.6396 22.4287 20 23.0683 20 23.8573C20 24.6463 20.6396 25.2859 21.4286 25.2859Z" fill="#323232"/>
</g>
<circle cx="22.4746" cy="7.5" r="7.5" fill="#FFAE14"/>
<path d="M22.1498 10.5928C21.6133 10.5928 21.1051 10.5081 20.6251 10.3387C20.1521 10.1622 19.7709 9.9293 19.4815 9.63988L19.8521 9.03636C20.0921 9.28341 20.4133 9.48812 20.8156 9.65047C21.2251 9.81283 21.6698 9.894 22.1498 9.894C22.7639 9.894 23.2333 9.75989 23.558 9.49165C23.8898 9.22341 24.0556 8.86341 24.0556 8.41165C24.0556 7.95988 23.8933 7.59988 23.5686 7.33165C23.2509 7.06341 22.7462 6.9293 22.0545 6.9293H21.5251V6.36812L23.8121 3.49871L23.918 3.79518H19.7886V3.11753H24.5533V3.65753L22.2662 6.52694L21.8956 6.28341H22.1815C23.0709 6.28341 23.7345 6.48106 24.1721 6.87636C24.6168 7.27165 24.8392 7.77988 24.8392 8.40106C24.8392 8.81753 24.7403 9.19165 24.5427 9.52341C24.3451 9.85518 24.0451 10.1164 23.6427 10.3069C23.2474 10.4975 22.7498 10.5928 22.1498 10.5928Z" fill="white"/>
</svg>
