<svg width="100" height="17" viewBox="0 0 100 17" fill="none" xmlns="http://www.w3.org/2000/svg">
<g clip-path="url(#clip0_1_336)">
<path d="M8.3332 12.6805L3.43529 15.4222L4.52904 9.91661L0.408203 6.1055L5.98251 5.44439L8.3332 0.347168L10.6839 5.44439L16.2582 6.1055L12.1374 9.91661L13.2311 15.4222L8.3332 12.6805Z" fill="#FFA600"/>
</g>
<g clip-path="url(#clip1_1_336)">
<path d="M29.1662 12.6805L24.2683 15.4222L25.362 9.91661L21.2412 6.1055L26.8155 5.44439L29.1662 0.347168L31.5169 5.44439L37.0912 6.1055L32.9704 9.91661L34.0641 15.4222L29.1662 12.6805Z" fill="#FFA600"/>
</g>
<path d="M50.0002 12.6805L45.1023 15.4222L46.196 9.91661L42.0752 6.1055L47.6495 5.44439L50.0002 0.347168L52.3509 5.44439L57.9252 6.1055L53.8044 9.91661L54.8981 15.4222L50.0002 12.6805Z" fill="#FFA600"/>
<g clip-path="url(#clip2_1_336)">
<path d="M70.8332 12.6805L65.9353 15.4222L67.029 9.91661L62.9082 6.1055L68.4825 5.44439L70.8332 0.347168L73.1839 5.44439L78.7582 6.1055L74.6374 9.91661L75.7311 15.4222L70.8332 12.6805Z" fill="#FFA600"/>
</g>
<g clip-path="url(#clip3_1_336)">
<path d="M91.6662 12.6805L86.7683 15.4222L87.862 9.91661L83.7412 6.1055L89.3155 5.44439L91.6662 0.347168L94.0169 5.44439L99.5912 6.1055L95.4704 9.91661L96.5641 15.4222L91.6662 12.6805Z" fill="#E0E0E0"/>
</g>
<defs>
<clipPath id="clip0_1_336">
<rect width="16.6667" height="16.6667" fill="white"/>
</clipPath>
<clipPath id="clip1_1_336">
<rect width="16.6667" height="16.6667" fill="white" transform="translate(20.833)"/>
</clipPath>
<clipPath id="clip2_1_336">
<rect width="16.6667" height="16.6667" fill="white" transform="translate(62.5)"/>
</clipPath>
<clipPath id="clip3_1_336">
<rect width="16.6667" height="16.6667" fill="white" transform="translate(83.333)"/>
</clipPath>
</defs>
</svg>
