<svg width="30" height="30" viewBox="0 0 30 30" fill="none" xmlns="http://www.w3.org/2000/svg">
<g opacity="0.7">
<path d="M26.25 14.9998C26.2536 17.2333 25.5893 19.4168 24.3425 21.2698C23.3143 22.8036 21.9239 24.0604 20.2944 24.929C18.665 25.7975 16.8465 26.2512 15 26.2498C13.1535 26.2512 11.335 25.7975 9.70556 24.929C8.07607 24.0604 6.68573 22.8036 5.6575 21.2698C4.67841 19.8104 4.05488 18.1418 3.83688 16.3979C3.61889 14.654 3.81249 12.8833 4.40218 11.2277C4.99187 9.5721 5.96124 8.0777 7.23258 6.86428C8.50392 5.65086 10.0419 4.75217 11.7231 4.24026C13.4044 3.72835 15.1822 3.61745 16.9141 3.91646C18.6459 4.21548 20.2836 4.91608 21.6959 5.96211C23.1082 7.00813 24.2557 8.37049 25.0466 9.93996C25.8374 11.5094 26.2496 13.2424 26.25 14.9998Z" stroke="#323232"/>
<path d="M16.875 11.25C16.875 11.7473 16.6774 12.2242 16.3258 12.5758C15.9742 12.9275 15.4973 13.125 15 13.125V14.375C15.4104 14.375 15.8167 14.2942 16.1959 14.1371C16.575 13.9801 16.9195 13.7499 17.2097 13.4597C17.4999 13.1695 17.7301 12.825 17.8871 12.4459C18.0442 12.0667 18.125 11.6604 18.125 11.25H16.875ZM15 13.125C14.5027 13.125 14.0258 12.9275 13.6742 12.5758C13.3225 12.2242 13.125 11.7473 13.125 11.25H11.875C11.875 11.6604 11.9558 12.0667 12.1129 12.4459C12.2699 12.825 12.5001 13.1695 12.7903 13.4597C13.3763 14.0458 14.1712 14.375 15 14.375V13.125ZM13.125 11.25C13.125 10.7527 13.3225 10.2758 13.6742 9.92417C14.0258 9.57254 14.5027 9.375 15 9.375V8.125C14.1712 8.125 13.3763 8.45424 12.7903 9.04029C12.2042 9.62634 11.875 10.4212 11.875 11.25H13.125ZM15 9.375C15.4973 9.375 15.9742 9.57254 16.3258 9.92417C16.6774 10.2758 16.875 10.7527 16.875 11.25H18.125C18.125 10.4212 17.7957 9.62634 17.2097 9.04029C16.6236 8.45424 15.8288 8.125 15 8.125V9.375ZM6.45748 22.32L5.85748 22.1425L5.76123 22.4688L5.98248 22.7275L6.45748 22.32ZM23.5425 22.32L24.0175 22.7275L24.2387 22.4688L24.1412 22.1425L23.5425 22.32ZM11.25 19.375H18.75V18.125H11.25V19.375ZM11.25 18.125C10.0386 18.1248 8.85943 18.5157 7.88805 19.2396C6.91667 19.9635 6.20368 20.9816 5.85748 22.1425L7.05623 22.4988C7.3257 21.5959 7.87943 20.8042 8.63504 20.2414C9.39066 19.6785 10.3078 19.3747 11.25 19.375V18.125ZM15 25.625C13.4666 25.6266 11.9511 25.2956 10.558 24.6546C9.16498 24.0137 7.92759 23.0781 6.93123 21.9125L5.98248 22.7275C7.09629 24.0297 8.47928 25.0748 10.0361 25.7909C11.5929 26.5069 13.2864 26.8768 15 26.875V25.625ZM18.75 19.375C19.6923 19.3748 20.6096 19.6788 21.3652 20.2419C22.1209 20.8049 22.6745 21.5969 22.9437 22.5L24.1412 22.1425C23.795 20.9816 23.0833 19.9635 22.1119 19.2396C21.1405 18.5157 19.9614 18.1248 18.75 18.125V19.375ZM23.0687 21.9125C22.0724 23.0781 20.835 24.0137 19.4419 24.6546C18.0489 25.2956 16.5334 25.6266 15 25.625V26.875C16.7135 26.8768 18.4071 26.5069 19.9639 25.7909C21.5207 25.0748 22.9037 24.0297 24.0175 22.7275L23.0687 21.9125Z" fill="#323232"/>
</g>
</svg>
