<svg width="46" height="46" viewBox="0 0 46 46" fill="none" xmlns="http://www.w3.org/2000/svg">
<rect width="46" height="46" rx="23" fill="#FEAE11"/>
<path d="M15.5 16.8571C22.4736 16.8571 33.4286 16.8571 33.4286 16.8571L31.1629 24.7857C30.9921 25.3826 30.6317 25.9076 30.136 26.2813C29.6404 26.655 29.0365 26.8572 28.4157 26.8571H18.8443C18.1407 26.8575 17.4616 26.5983 16.9373 26.1291C16.413 25.6598 16.0803 25.0136 16.0029 24.3143L14.8571 14H12" stroke="white" stroke-linecap="round" stroke-linejoin="round"/>
<path d="M19.3571 30.4286C19.3571 30.9414 18.9414 31.3571 18.4286 31.3571C17.9157 31.3571 17.5 30.9414 17.5 30.4286C17.5 29.9157 17.9157 29.5 18.4286 29.5C18.9414 29.5 19.3571 29.9157 19.3571 30.4286Z" fill="#FEAE11" stroke="white"/>
<path d="M30.7849 30.4286C30.7849 30.9414 30.3691 31.3571 29.8563 31.3571C29.3435 31.3571 28.9277 30.9414 28.9277 30.4286C28.9277 29.9157 29.3435 29.5 29.8563 29.5C30.3691 29.5 30.7849 29.9157 30.7849 30.4286Z" fill="#FEAE11" stroke="white"/>
</svg>
